<?xml version="1.0" standalone="no"?>
<!DOCTYPE svg PUBLIC "-//W3C//DTD SVG 20010904//EN"
 "http://www.w3.org/TR/2001/REC-SVG-20010904/DTD/svg10.dtd">
<svg version="1.0" xmlns="http://www.w3.org/2000/svg"
 width="700.000000pt" height="700.000000pt" viewBox="0 0 700.000000 700.000000"
 preserveAspectRatio="xMidYMid meet">
<metadata>
Created by potrace 1.11, written by Peter Selinger 2001-2013
</metadata>
<g transform="translate(0.000000,700.000000) scale(0.100000,-0.100000)"
fill="#000000" stroke="none">
<path d="M3320 5137 c-3 -3 -39 -8 -80 -11 -41 -3 -86 -8 -100 -10 -14 -3 -43
-7 -65 -10 -22 -2 -62 -10 -90 -16 -27 -7 -61 -14 -75 -16 -127 -24 -399 -121
-563 -201 -524 -256 -956 -689 -1205 -1206 -82 -170 -81 -158 -33 -263 80
-178 190 -362 307 -515 104 -134 165 -201 345 -371 79 -75 271 -214 404 -293
226 -133 541 -260 750 -300 273 -53 309 -57 545 -58 291 -2 347 3 580 50 536
109 1056 410 1416 819 33 37 64 72 69 78 89 96 270 380 346 544 65 141 64 135
38 200 -123 303 -373 654 -635 892 -299 271 -630 459 -1024 581 -101 32 -304
75 -397 85 -31 3 -66 8 -77 11 -27 6 -450 15 -456 10z"/>
</g>
</svg>
